# AST/ASF file generated using VICON BodyLanguage
# -----------------------------------------------
:version 1.10
:name VICON
:units
  mass 1.0
  length 0.45
  angle deg
:documentation
   .ast/.asf automatically generated from VICON data using
   VICON BodyBuilder and BodyLanguage model FoxedUp or BRILLIANT.MOD
:root
   order TX TY TZ RX RY RZ
   axis XYZ
   position 0 0 0  
   orientation 0 0 0 
:bonedata
  begin
     id 1 
     name lhipjoint
     direction 0.521689 -0.742065 0.420928 
     length 2.47002 
     axis 0 0 0  XYZ
  end
  begin
     id 2 
     name lfemur
     direction 0.34202 -0.939693 0  
     length 7.24654  
     axis 0 0 20  XYZ
    dof rx ry rz
    limits (-160.0 20.0)
           (-70.0 70.0)
           (-60.0 70.0)
  end
  begin
     id 3 
     name ltibia
     direction 0.34202 -0.939693 0   
     length 8.04849   
     axis 0 0 20   XYZ
    dof rx
    limits (-10.0 170.0)
  end
  begin
     id 4 
     name lfoot
     direction 0.0745411 -0.2048 0.975961   
     length 1.72367   
     axis -90 7.62852e-016 20   XYZ
    dof rx rz
    limits (-45.0 90.0)
           (-70.0 20.0)
  end
  begin
     id 5 
     name ltoes
     direction 1.53556e-011 -4.21901e-011 1   
     length 0.87311   
     axis -90 7.62852e-016 20   XYZ
    dof rx
    limits (-90.0 20.0)
  end
  begin
     id 6 
     name rhipjoint
     direction -0.52849 -0.738415 0.418857   
     length 2.48223  
     axis 0 0 0  XYZ 
  end
  begin
     id 7 
     name rfemur
     direction -0.34202 -0.939693 0   
     length 7.15571   
     axis 0 0 -20   XYZ
    dof rx ry rz
    limits (-160.0 20.0)
           (-70.0 70.0)
           (-70.0 60.0)
  end
  begin
     id 8 
     name rtibia
     direction -0.34202 -0.939693 0   
     length 7.81659   
     axis 0 0 -20   XYZ
    dof rx
    limits (-10.0 170.0)
 end
 begin
     id 9 
     name rfoot
     direction -0.0917348 -0.252039 0.963359   
     length 1.84382  
     axis -90 -7.62852e-016 -20   XYZ
    dof rx rz
    limits (-45.0 90.0)
           (-20.0 70.0)
  end
  begin
     id 10 
     name rtoes
     direction -1.53551e-011 -4.21879e-011 1   
     length 0.927771   
     axis -90 -7.62852e-016 -20   XYZ
    dof rx
    limits (-90.0 20.0)
  end
  begin
     id 11 
     name lowerback
     direction 0.00583058 0.999822 0.0179296   
     length 2.1429   
     axis 0 0 0   XYZ
    dof rx ry rz
    limits (-20.0 45.0)
           (-30.0 30.0)
           (-30.0 30.0)
  end
  begin
     id 12 
     name upperback
     direction -0.0137999 0.999752 -0.0175071   
     length 2.14252   
     axis 0 0 0   XYZ
    dof rx ry rz
    limits (-20.0 45.0)
           (-30.0 30.0)
           (-30.0 30.0)
  end
  begin
     id 13 
     name thorax
     direction -0.0158036 0.99955 -0.0254909   
     length 2.1383   
     axis 0 0 0   XYZ
    dof rx ry rz
    limits (-20.0 45.0)
           (-30.0 30.0)
           (-30.0 30.0)
  end
  begin
     id 14 
     name lowerneck
     direction -0.0101179 0.999403 -0.0330262   
     length 1.65808   
     axis 0 0 0   XYZ
    dof rx ry rz
    limits (-20.0 45.0)
           (-30.0 30.0)
           (-30.0 30.0)
  end
  begin
     id 15 
     name upperneck
     direction 0.0497734 0.995978 -0.074501   
     length 1.5897   
     axis 0 0 0   XYZ
    dof rx ry rz
    limits (-20.0 45.0)
           (-30.0 30.0)
           (-30.0 30.0)
  end
  begin
     id 16
     name head
     direction 0.0189524 0.999519 -0.0245438  
     length 1.74024  
     axis 0 0 0   XYZ
    dof rx ry rz
    limits (-20.0 45.0)
           (-30.0 30.0)
           (-30.0 30.0)
  end
  begin
     id 17 
     name lclavicle
     direction 0.945604 0.324422 0.0241537  
     length 3.59089  
     axis 0 0 0   XYZ
    dof ry rz
    limits (-20.0 10.0)
           (0.0 20.0)
  end
  begin
     id 18 
     name lhumerus
     direction 1 -4.48964e-011 -2.63524e-027   
     length 5.2391   
     axis 180 -30 -90   XYZ
    dof rx ry rz
    limits (-60.0 90.0)
           (-90.0 90.0)
           (-90.0 90.0)
  end
  begin
     id 19
     name lradius
     direction 1 -4.48969e-011 3.86978e-028   
     length 3.31467   
     axis 180 -30 -90   XYZ
    dof rx
    limits (-10.0 170.0)
  end
  begin
     id 20
     name lwrist
     direction 1 -4.48963e-011 7.20928e-028   
     length 1.65734   
     axis -5.52449e-016 90 90   XYZ
    dof ry
    limits (-180.0 0.0)
 end
  begin
     id 21 
     name lhand
     direction 1 -4.48964e-011 1.44186e-027   
     length 0.9659   
     axis -9.20027e-016 90 90   XYZ
    dof rx rz
    limits (-90.0 90.0)
           (-45.0 45.0)
  end
  begin
     id 22 
     name lfingers
     direction 1 -4.48965e-011 2.88371e-027   
     length 0.778733   
     axis -1.84005e-015 90 90   XYZ
    dof rx
    limits (0.0 90.0)
  end
  begin
     id 23
     name lthumb
     direction 0.707107 -6.34931e-011 0.707107   
     length 1.11811   
     axis -90 45 2.85299e-015   XYZ
    dof rx rz
    limits (-45.0 45.0)
           (-45.0 45.0)
  end
  begin
     id 24 
     name rclavicle
     direction -0.923762 0.370785 0.0958234   
     length 3.54196  
     axis 0 0 0   XYZ 
    dof ry rz
    limits (-10.0 20.0)
           (-20.0 0.0)
  end
  begin
     id 25 
     name rhumerus
     direction -1 -4.48966e-011 1.18702e-017  
     length 5.30252   
     axis 180 30 90   XYZ
    dof rx ry rz
    limits (-90.0 60.0)
           (-90.0 90.0)
           (-90.0 90.0)
  end
  begin
     id 26 
     name rradius
     direction -1 -4.48966e-011 4.46736e-027   
     length 3.67875   
     axis 180 30 90   XYZ
    dof rx
    limits (-10.0 170.0)
  end
  begin
     id 27 
     name rwrist
     direction -1 -4.48966e-011 7.20928e-028   
     length 1.83937   
     axis -5.52449e-016 -90 -90   XYZ
    dof ry
    limits (-180.0 0.0)
  end
  begin
     id 28
     name rhand
     direction -1 -4.48973e-011 1.44186e-027   
     length 0.594811   
     axis -9.20027e-016 -90 -90   XYZ
    dof rx rz
    limits (-90.0 90.0)
           (-45.0 45.0)
  end
  begin
     id 29
     name rfingers
     direction -1 -4.48963e-011 2.88371e-027   
     length 0.479552   
     axis -1.84005e-015 -90 -90   XYZ
    dof rx
    limits (0.0 90.0)
  end
  begin
     id 30
     name rthumb
     direction -0.707107 -6.34932e-011 0.707107   
     length 0.688544   
     axis -90 -45 -2.85299e-015   XYZ
    dof rx rz
    limits (-45.0 45.0)
           (-45.0 45.0)
  end
:hierarchy
  begin
    root lhipjoint rhipjoint lowerback
    lhipjoint lfemur
    lfemur ltibia
    ltibia lfoot
    lfoot ltoes
    rhipjoint rfemur
    rfemur rtibia
    rtibia rfoot
    rfoot rtoes
    lowerback upperback
    upperback thorax
    thorax lowerneck lclavicle rclavicle
    lowerneck upperneck
    upperneck head
    lclavicle lhumerus
    lhumerus lradius
    lradius lwrist
    lwrist lhand lthumb
    lhand lfingers
    rclavicle rhumerus
    rhumerus rradius
    rradius rwrist
    rwrist rhand rthumb
    rhand rfingers
  end

#!OML:ASF E:\acrobat2\Project_11_07_03\Capture day 1\Session 1\Acrobat.ASF
:FULLY-SPECIFIED
:DEGREES
57
root 10.4403 20.3444 -16.1397 4.84824 -4.69836 -4.34861
lowerback -6.44504 -1.42537 2.3138
upperback 0.871427 -2.10583 0.436088
thorax 4.45135 -0.991284 -1.06023
lowerneck 2.80749 -8.80711 -7.85169
upperneck 3.58977 -12.381 12.2476
head 1.8629 -6.20658 4.7149
rclavicle 2.23633e-015 6.36111e-015
rhumerus -39.0476 -4.11585 -80.0472
rradius 31.9554
rwrist 1.35952
rhand -0.741913 -47.6659
rfingers 7.12502
rthumb 24.8796 -76.0669
lclavicle 2.23633e-015 6.36111e-015
lhumerus -30.612 17.0279 73.8389
lradius 31.1046
lwrist 162.574
lhand -28.0991 11.2126
lfingers 7.12502
lthumb -1.48162 41.1872
rfemur -13.2199 8.64418 22.4788
rtibia 29.8167
rfoot -29.4299 -9.33279
rtoes 17.4802
lfemur -20.1279 -3.8411 -11.5249
ltibia 43.7598
lfoot -28.7819 -9.76574
ltoes 6.41696
58
root 10.4401 20.3436 -16.143 4.87866 -4.74456 -4.4293
lowerback -6.48109 -1.41111 2.35113
upperback 0.865685 -2.09251 0.474825
thorax 4.46638 -0.984065 -1.04072
lowerneck 3.04255 -9.03297 -7.62853
upperneck 3.19825 -12.6388 11.8773
head 1.69894 -6.34942 4.58097
rclavicle 2.00276e-014 8.74653e-015
rhumerus -39.082 -3.94615 -80.1034
rradius 32.0815
rwrist 1.29494
rhand -0.775056 -47.9271
rfingers 7.12502
rthumb 24.8478 -76.3324
lclavicle 2.00276e-014 8.74653e-015
lhumerus -30.5828 17.058 73.8522
lradius 31.0728
lwrist 162.514
lhand -28.0202 11.3642
lfingers 7.12502
lthumb -1.40544 41.3394
rfemur -13.2645 8.84948 22.5754
rtibia 29.8096
rfoot -29.4603 -9.49254
rtoes 17.5515
lfemur -20.1655 -3.82118 -11.4257
ltibia 43.758
lfoot -28.8174 -9.73506
ltoes 6.3673
59
root 10.4412 20.3445 -16.1481 4.90815 -4.87839 -4.43771
lowerback -6.48031 -1.34968 2.36233
upperback 0.848733 -2.01066 0.464009
thorax 4.45027 -0.94343 -1.04973
lowerneck 2.91574 -8.81688 -7.89623
upperneck 3.59129 -12.4003 12.2384
head 1.8498 -6.2204 4.72368
rclavicle 1.38404e-014 -3.18055e-015
rhumerus -39.1013 -3.94784 -80.1147
rradius 32.1042
rwrist 1.31433
rhand -0.871323 -47.9506
rfingers 7.12502
rthumb 24.7555 -76.3686
lclavicle 1.38404e-014 -3.18055e-015
lhumerus -30.5366 17.0823 73.8426
lradius 31.0392
lwrist 162.404
lhand -28.2897 11.0449
lfingers 7.12502
lthumb -1.66571 41.0181
rfemur -13.3409 8.91201 22.5596
rtibia 29.827
rfoot -29.4217 -9.48732
rtoes 17.4314
lfemur -20.1742 -3.74155 -11.4291
ltibia 43.7427
lfoot -28.8468 -9.66792
ltoes 6.17599
60
root 10.4446 20.3463 -16.1532 4.93188 -5.09473 -4.41974
lowerback -6.47487 -1.26134 2.4031
upperback 0.838038 -1.89381 0.420428
thorax 4.43726 -0.884205 -1.1057
lowerneck 2.95936 -9.03331 -7.5633
upperneck 3.26989 -12.6393 11.8619
head 1.72853 -6.3451 4.56036
rclavicle 8.74653e-015 3.57812e-015
rhumerus -39.1144 -3.89405 -80.2028
rradius 32.1408
rwrist 1.3539
rhand -1.03892 -48.1511
rfingers 7.12502
rthumb 24.5949 -76.5911
lclavicle 8.74653e-015 3.57812e-015
lhumerus -30.4606 17.2063 73.7953
lradius 30.9362
lwrist 162.218
lhand -28.4806 10.8126
lfingers 7.12502
lthumb -1.85012 40.7843
rfemur -13.4202 8.69087 22.4901
rtibia 29.8524
rfoot -29.1671 -9.3403
rtoes 16.4848
lfemur -20.1503 -3.6124 -11.4874
ltibia 43.7182
lfoot -28.8669 -9.59929
ltoes 6.19766
61
root 10.4471 20.3477 -16.1592 4.95107 -5.17452 -4.44807
lowerback -6.42356 -1.2216 2.47985
upperback 0.812938 -1.84368 0.393625
thorax 4.38072 -0.858137 -1.16968
lowerneck 2.89532 -9.06964 -7.63249
upperneck 3.25911 -12.6894 11.927
head 1.74934 -6.36857 4.58464
rclavicle -1.13804e-014 -3.97569e-015
rhumerus -39.1186 -3.86514 -80.286
rradius 32.1692
rwrist 1.40892
rhand -1.10836 -48.4203
rfingers 7.12502
rthumb 24.5283 -76.8694
lclavicle -1.13804e-014 -3.97569e-015
lhumerus -30.4136 17.1955 73.7568
lradius 30.8443
lwrist 162.181
lhand -28.2972 10.998
lfingers 7.12502
lthumb -1.67294 40.9712
rfemur -13.4678 8.49382 22.5132
rtibia 29.879
rfoot -28.9694 -9.41449
rtoes 15.1454
lfemur -20.1648 -3.55994 -11.4693
ltibia 43.6928
lfoot -28.853 -9.56402
ltoes 6.33882
62
root 10.4481 20.3494 -16.1654 4.9626 -5.20297 -4.37743
lowerback -6.33218 -1.22689 2.3832
upperback 0.751561 -1.83916 0.393669
thorax 4.26833 -0.860317 -1.11166
lowerneck 3.03583 -9.08206 -7.67494
upperneck 3.17884 -12.7051 11.8879
head 1.70461 -6.38308 4.58824
rclavicle 2.50966e-015 -2.50469e-014
rhumerus -39.2239 -3.86778 -80.2479
rradius 32.2759
rwrist 1.49264
rhand -1.03578 -48.4318
rfingers 7.12502
rthumb 24.5979 -76.8714
lclavicle 2.50966e-015 -2.50469e-014
lhumerus -30.5058 17.1021 73.7533
lradius 30.8662
lwrist 162.325
lhand -28.1327 11.1806
lfingers 7.12502
lthumb -1.51404 41.155
rfemur -13.5156 8.5309 22.438
rtibia 29.9001
rfoot -28.9369 -9.53441
rtoes 14.7947
lfemur -20.1963 -3.61703 -11.549
ltibia 43.6717
lfoot -28.8415 -9.52325
ltoes 6.71019
63
root 10.4501 20.3504 -16.1691 4.97531 -5.23502 -4.30577
lowerback -6.30553 -1.25045 2.27961
upperback 0.699751 -1.86123 0.404166
thorax 4.20216 -0.875108 -1.0434
lowerneck 3.24969 -9.05124 -7.66915
upperneck 3.0541 -12.6595 11.8154
head 1.62356 -6.36975 4.58251
rclavicle 1.97542e-014 -1.70955e-014
rhumerus -39.321 -3.72296 -80.2786
rradius 32.3865
rwrist 1.59537
rhand -1.07281 -48.6478
rfingers 7.12502
rthumb 24.5624 -77.0923
lclavicle 1.97542e-014 -1.70955e-014
lhumerus -30.6317 17.1292 73.731
lradius 30.8962
lwrist 162.444
lhand -28.2659 11.0568
lfingers 7.12502
lthumb -1.6427 41.0302
rfemur -13.5718 8.69293 22.3376
rtibia 29.9106
rfoot -29.0052 -9.51404
rtoes 15.4223
lfemur -20.2185 -3.65684 -11.6384
ltibia 43.6643
lfoot -28.8489 -9.46339
ltoes 6.7986
64
root 10.454 20.3494 -16.1709 4.97347 -5.20186 -4.30802
lowerback -6.2983 -1.26585 2.33027
upperback 0.678196 -1.88408 0.380959
thorax 4.17256 -0.885555 -1.0974
lowerneck 3.31896 -9.08823 -7.49601
upperneck 2.96747 -12.6915 11.6187
head 1.56668 -6.38844 4.50283
rclavicle 1.56543e-014 1.59028e-015
rhumerus -39.3399 -3.66667 -80.3501
rradius 32.3634
rwrist 1.6626
rhand -1.14717 -48.818
rfingers 7.12502
rthumb 24.4911 -77.2721
lclavicle 1.56543e-014 1.59028e-015
lhumerus -30.6527 17.1039 73.7091
lradius 30.9044
lwrist 162.491
lhand -28.3797 10.8544
lfingers 7.12502
lthumb -1.75259 40.8269
rfemur -13.5942 8.74995 22.3187
rtibia 29.9148
rfoot -29.0737 -9.44034
rtoes 15.968
lfemur -20.217 -3.66073 -11.6468
ltibia 43.6651
lfoot -28.8747 -9.44286
ltoes 6.55609
65
root 10.4572 20.3494 -16.1735 4.97468 -5.18951 -4.31629
lowerback -6.28294 -1.25896 2.39562
upperback 0.669298 -1.87783 0.34627
thorax 4.15167 -0.880912 -1.16869
lowerneck 3.26124 -9.08543 -7.53509
upperneck 3.10121 -12.7014 11.6952
head 1.62363 -6.38938 4.52446
rclavicle -1.52816e-014 -5.56597e-015
rhumerus -39.3677 -3.75928 -80.3647
rradius 32.328
rwrist 1.76814
rhand -1.18171 -48.6781
rfingers 7.12502
rthumb 24.458 -77.1367
lclavicle -1.52816e-014 -5.56597e-015
lhumerus -30.6181 17.016 73.7028
lradius 30.9079
lwrist 162.511
lhand -28.3528 10.8589
lfingers 7.12502
lthumb -1.72662 40.8317
rfemur -13.5978 8.64177 22.3236
rtibia 29.9111
rfoot -29.0092 -9.47099
rtoes 15.5261
lfemur -20.2178 -3.64053 -11.649
ltibia 43.6675
lfoot -28.9356 -9.39465
ltoes 5.97161
66
root 10.458 20.3508 -16.1784 4.98229 -5.23684 -4.32098
lowerback -6.24379 -1.25163 2.39601
upperback 0.653592 -1.86658 0.344697
thorax 4.11362 -0.875968 -1.16815
lowerneck 3.22123 -9.08885 -7.5221
upperneck 3.14256 -12.7049 11.641
head 1.63837 -6.38924 4.50315
rclavicle 1.01629e-014 -8.74653e-015
rhumerus -39.3734 -3.82284 -80.3566
rradius 32.3006
rwrist 1.94377
rhand -1.24041 -48.438
rfingers 7.12502
rthumb 24.4018 -76.9041
lclavicle 1.01629e-014 -8.74653e-015
lhumerus -30.6568 16.9943 73.689
lradius 30.9567
lwrist 162.51
lhand -28.4153 10.902
lfingers 7.12502
lthumb -1.78697 40.8742
rfemur -13.6074 8.62728 22.334
rtibia 29.9044
rfoot -28.947 -9.58307
rtoes 14.9669
lfemur -20.2347 -3.57191 -11.6444
ltibia 43.6719
lfoot -28.9224 -9.41699
ltoes 5.936
67
root 10.4589 20.3522 -16.1821 4.97118 -5.27128 -4.30314
lowerback -6.20534 -1.24551 2.37255
upperback 0.640352 -1.85483 0.334714
thorax 4.07899 -0.871148 -1.16297
lowerneck 3.24855 -9.10202 -7.54454
upperneck 3.12553 -12.7235 11.6475
head 1.6326 -6.39992 4.50955
rclavicle 1.78906e-014 -1.86858e-014
rhumerus -39.3409 -3.87836 -80.3503
rradius 32.2444
rwrist 2.04736
rhand -1.22282 -48.3902
rfingers 7.12502
rthumb 24.4186 -76.8541
lclavicle 1.78906e-014 -1.86858e-014
lhumerus -30.7023 17.0009 73.6647
lradius 30.9951
lwrist 162.499
lhand -28.5492 10.8671
lfingers 7.12502
lthumb -1.91635 40.8383
rfemur -13.603 8.67388 22.3131
rtibia 29.899
rfoot -28.9318 -9.64439
rtoes 14.8863
lfemur -20.2375 -3.52826 -11.6645
ltibia 43.6777
lfoot -28.887 -9.45387
ltoes 6.36576
68
root 10.4615 20.3509 -16.1825 4.92908 -5.23595 -4.31828
lowerback -6.1912 -1.25908 2.41484
upperback 0.638536 -1.87516 0.322322
thorax 4.06667 -0.880339 -1.20094
lowerneck 3.42093 -9.14185 -7.5063
upperneck 2.99079 -12.7705 11.5925
head 1.5637 -6.43092 4.49833
rclavicle 9.34288e-015 -1.59028e-014
rhumerus -39.3359 -3.87272 -80.3788
rradius 32.1988
rwrist 2.06529
rhand -1.18847 -48.542
rfingers 7.12502
rthumb 24.4515 -77.0015
lclavicle 9.34288e-015 -1.59028e-014
lhumerus -30.7415 17.0498 73.6235
lradius 30.9847
lwrist 162.412
lhand -28.5564 10.8842
lfingers 7.12502
lthumb -1.9233 40.8553
rfemur -13.5496 8.64274 22.328
rtibia 29.8856
rfoot -28.9498 -9.656
rtoes 14.8577
lfemur -20.2163 -3.54171 -11.6576
ltibia 43.6901
lfoot -28.8631 -9.47861
ltoes 6.53811
69
root 10.464 20.3477 -16.1833 4.86552 -5.21059 -4.37722
lowerback -6.13255 -1.27322 2.49833
upperback 0.638261 -1.89869 0.326847
thorax 4.03 -0.890752 -1.24357
lowerneck 3.59338 -9.1832 -7.43333
upperneck 2.86404 -12.8175 11.5026
head 1.49269 -6.4615 4.47161
rclavicle 9.34288e-015 7.15625e-015
rhumerus -39.3193 -3.82332 -80.4283
rradius 32.1247
rwrist 2.0468
rhand -1.17428 -48.71
rfingers 7.12502
rthumb 24.4651 -77.1676
lclavicle 9.34288e-015 7.15625e-015
lhumerus -30.8142 17.0601 73.5889
lradius 31.0143
lwrist 162.354
lhand -28.3759 11.0295
lfingers 7.12502
lthumb -1.74895 41.0021
rfemur -13.4755 8.64922 22.396
rtibia 29.8691
rfoot -28.9613 -9.62815
rtoes 15.0987
lfemur -20.1609 -3.54482 -11.6039
ltibia 43.7066
lfoot -28.8348 -9.50632
ltoes 6.43282
70
root 10.4649 20.3473 -16.1848 4.84348 -5.24339 -4.39862
lowerback -6.11745 -1.25773 2.51572
upperback 0.633178 -1.87885 0.328438
thorax 4.01649 -0.88078 -1.24934
lowerneck 3.73568 -9.22361 -7.38579
upperneck 2.74715 -12.8667 11.4879
head 1.43607 -6.49198 4.46904
rclavicle 9.11925e-015 1.11319e-014
rhumerus -39.3116 -3.80761 -80.4473
rradius 32.0622
rwrist 1.96861
rhand -1.19299 -48.809
rfingers 7.12502
rthumb 24.4472 -77.269
lclavicle 9.11925e-015 1.11319e-014
lhumerus -30.8596 16.9784 73.599
lradius 31.0519
lwrist 162.393
lhand -28.1546 11.2366
lfingers 7.12502
lthumb -1.53518 41.2109
rfemur -13.4569 8.75886 22.4207
rtibia 29.8607
rfoot -28.9592 -9.66201
rtoes 15.3899
lfemur -20.1262 -3.57189 -11.5864
ltibia 43.7202
lfoot -28.8841 -9.48321
ltoes 6.36804
